<svg width="36" height="36" viewBox="0 0 36 36" fill="none" xmlns="http://www.w3.org/2000/svg">
<rect width="36" height="36" rx="8" fill="black" fill-opacity="0.3"/>
<path d="M25.11 18.138C25.13 17.9183 25.14 17.6986 25.14 17.479C25.14 13.8912 23.71 10 22.28 10C20.85 10 19.42 11.4958 18 11.4958C16.57 11.4958 15.14 10 13.71 10C12.28 10 10.86 13.8179 10.86 17.479C10.86 17.6986 10.86 17.9183 10.88 18.138C13.22 18.6923 15.6 18.9748 18 18.9643C20.45 18.9643 22.83 18.6819 25.11 18.138V18.138ZM9.45 24.686C15.0235 26.438 20.9665 26.438 26.54 24.686C26.9621 24.5377 27.3295 24.2555 27.5912 23.8787C27.8528 23.5019 27.9957 23.0492 28 22.5835C28 22.1128 27.86 21.663 27.61 21.276C27.35 20.8994 27 20.617 26.56 20.4601C23.86 21.3597 21 21.8304 18 21.8304C15 21.8304 12.13 21.3597 9.43 20.4601C9 20.617 8.65 20.9099 8.39 21.2864C8.14 21.663 8 22.1128 8 22.5835C8 23.5667 8.61 24.3931 9.45 24.686V24.686Z" fill="white"/>
</svg>
