<svg width="28" height="28" viewBox="0 0 28 28" fill="none" xmlns="http://www.w3.org/2000/svg">
<path d="M14 28C21.732 28 28 21.732 28 14C28 6.26801 21.732 0 14 0C6.26801 0 0 6.26801 0 14C0 21.732 6.26801 28 14 28Z" fill="#FFCD36"/>
<path d="M20.4162 10.7338C19.334 8.5358 16.8602 7 13.9832 7C10.3432 7 7.35 9.4556 7 12.6" stroke="white" stroke-width="1.5" stroke-linecap="round" stroke-linejoin="round"/>
<path d="M7.58594 16.3338C8.66954 19.0806 11.1419 21 14.0189 21C17.6589 21 20.6493 17.9298 21.0021 14M17.4937 10.8108H20.1621C20.2724 10.8108 20.3817 10.789 20.4836 10.7468C20.5855 10.7046 20.6781 10.6427 20.7561 10.5647C20.8341 10.4867 20.896 10.3941 20.9382 10.2922C20.9804 10.1903 21.0021 10.0811 21.0021 9.97075V7.69995L17.4937 10.8108Z" stroke="white" stroke-width="1.5" stroke-linecap="round" stroke-linejoin="round"/>
<path d="M10.5084 16.271H7.84C7.61722 16.271 7.40356 16.3595 7.24603 16.517C7.0885 16.6746 7 16.8882 7 17.111V20.1602" stroke="white" stroke-width="1.5" stroke-linecap="round" stroke-linejoin="round"/>
</svg>
