<svg width="34" height="21" viewBox="0 0 34 21" fill="none" xmlns="http://www.w3.org/2000/svg">
<path d="M18.125 10.5C18.125 15.7734 14.0891 20.0625 9.125 20.0625C4.16094 20.0625 0.125 15.7734 0.125 10.5C0.125 5.22656 4.16094 0.9375 9.125 0.9375C14.0891 0.9375 18.125 5.22656 18.125 10.5ZM32.75 1.5C32.4516 1.5 32.1655 1.61853 31.9545 1.82951C31.7435 2.04048 31.625 2.32663 31.625 2.625V18.375C31.625 18.6734 31.7435 18.9595 31.9545 19.1705C32.1655 19.3815 32.4516 19.5 32.75 19.5C33.0484 19.5 33.3345 19.3815 33.5455 19.1705C33.7565 18.9595 33.875 18.6734 33.875 18.375V2.625C33.875 2.32663 33.7565 2.04048 33.5455 1.82951C33.3345 1.61853 33.0484 1.5 32.75 1.5ZM24.875 1.5C24.0734 1.5 22.5688 1.89375 21.4578 4.49531C20.7547 6.1125 20.375 8.25 20.375 10.5C20.375 12.75 20.7547 14.8875 21.4578 16.5047C22.5688 19.1062 24.0734 19.5 24.875 19.5C25.6766 19.5 27.1812 19.1062 28.2922 16.5047C28.9953 14.8875 29.375 12.75 29.375 10.5C29.375 8.25 28.9953 6.1125 28.2922 4.49531C27.1812 1.89375 25.6766 1.5 24.875 1.5Z" fill="white"/>
</svg>
