<svg width="35" height="29" viewBox="0 0 35 29" fill="none" xmlns="http://www.w3.org/2000/svg">
<path d="M34.4652 3.90549C33.2127 4.46049 31.8672 4.83549 30.4527 5.00499C31.9122 4.13168 33.0042 2.75719 33.5247 1.13799C32.1535 1.95248 30.6528 2.52579 29.0877 2.83299C28.0353 1.70929 26.6413 0.964483 25.1222 0.714204C23.6031 0.463926 22.0439 0.722181 20.6866 1.44887C19.3293 2.17556 18.2499 3.33004 17.616 4.73305C16.982 6.13606 16.8291 7.70912 17.1807 9.20799C14.4023 9.06849 11.6842 8.34632 9.20288 7.08835C6.72158 5.83038 4.53251 4.06474 2.77775 1.90599C2.17775 2.94099 1.83275 4.14099 1.83275 5.41899C1.83208 6.56949 2.1154 7.70236 2.65757 8.71709C3.19974 9.73183 3.98399 10.597 4.94075 11.236C3.83116 11.2007 2.74606 10.9009 1.77575 10.3615V10.4515C1.77564 12.0651 2.3338 13.6291 3.35552 14.878C4.37725 16.1269 5.79961 16.9839 7.38125 17.3035C6.35192 17.5821 5.27276 17.6231 4.22525 17.4235C4.6715 18.8119 5.54074 20.026 6.7113 20.8959C7.88186 21.7657 9.29512 22.2478 10.7532 22.2745C8.278 24.2176 5.22108 25.2716 2.07425 25.267C1.51682 25.2671 0.959864 25.2346 0.40625 25.1695C3.60046 27.2233 7.31876 28.3132 11.1162 28.309C23.9712 28.309 30.9987 17.662 30.9987 8.42799C30.9987 8.12799 30.9912 7.82499 30.9777 7.52499C32.3447 6.53645 33.5246 5.31234 34.4622 3.90999L34.4652 3.90549V3.90549Z" fill="white"/>
</svg>
