<svg width="36" height="28" viewBox="0 0 36 28" fill="none" xmlns="http://www.w3.org/2000/svg">
<path d="M30.4762 3.23801C28.1812 2.20301 25.7212 1.43801 23.1487 1.00301C23.1258 0.998608 23.1021 1.00144 23.0809 1.01112C23.0596 1.02079 23.0419 1.03683 23.0302 1.05701C22.7152 1.61051 22.3642 2.33201 22.1182 2.90201C19.3899 2.49436 16.6161 2.49436 13.8877 2.90201C13.6137 2.2703 13.3047 1.65434 12.9622 1.05701C12.9506 1.03658 12.933 1.02018 12.9119 1.01C12.8907 0.999812 12.8669 0.996327 12.8437 1.00001C10.2727 1.43501 7.81272 2.20001 5.51622 3.23651C5.49646 3.24479 5.47971 3.25892 5.46822 3.27701C0.800221 10.1395 -0.479279 16.8325 0.149221 23.4415C0.15097 23.4577 0.155994 23.4734 0.163988 23.4875C0.171982 23.5017 0.182779 23.5141 0.195721 23.524C2.92031 25.5076 5.95923 27.0187 9.18522 27.994C9.20771 28.0009 9.23176 28.0009 9.25424 27.9939C9.27672 27.987 9.29658 27.9734 9.31122 27.955C10.0054 27.0266 10.6206 26.0417 11.1502 25.0105C11.1576 24.9964 11.1618 24.9809 11.1626 24.965C11.1635 24.9491 11.1609 24.9333 11.1551 24.9185C11.1492 24.9037 11.1403 24.8903 11.1288 24.8793C11.1174 24.8682 11.1037 24.8598 11.0887 24.8545C10.1197 24.4896 9.18085 24.0492 8.28072 23.5375C8.26455 23.5283 8.25092 23.5152 8.24106 23.4994C8.2312 23.4836 8.22541 23.4656 8.22422 23.447C8.22303 23.4284 8.22647 23.4098 8.23424 23.3929C8.24201 23.376 8.25386 23.3612 8.26872 23.35C8.45772 23.2105 8.64672 23.065 8.82672 22.9195C8.84292 22.9064 8.86244 22.8981 8.8831 22.8954C8.90375 22.8928 8.92474 22.8959 8.94372 22.9045C14.8342 25.5505 21.2137 25.5505 27.0352 22.9045C27.0543 22.8954 27.0755 22.8919 27.0964 22.8943C27.1174 22.8966 27.1372 22.9049 27.1537 22.918C27.3337 23.065 27.5212 23.2105 27.7117 23.35C27.7267 23.361 27.7388 23.3755 27.7468 23.3923C27.7548 23.4091 27.7585 23.4276 27.7576 23.4462C27.7567 23.4647 27.7513 23.4828 27.7417 23.4988C27.7321 23.5147 27.7187 23.528 27.7027 23.5375C26.8057 24.0535 25.8727 24.49 24.8932 24.853C24.8782 24.8585 24.8645 24.8671 24.853 24.8782C24.8416 24.8894 24.8326 24.9029 24.8268 24.9178C24.821 24.9327 24.8184 24.9487 24.8193 24.9647C24.8201 24.9807 24.8244 24.9963 24.8317 25.0105C25.3717 26.041 25.9897 27.022 26.6692 27.9535C26.6833 27.9726 26.703 27.9869 26.7256 27.9944C26.7481 28.0019 26.7725 28.0023 26.7952 27.9955C30.0267 27.023 33.0706 25.5112 35.7982 23.524C35.8115 23.5147 35.8227 23.5027 35.831 23.4887C35.8393 23.4747 35.8444 23.4591 35.8462 23.443C36.5962 15.802 34.5892 9.163 30.5227 3.28001C30.5128 3.26089 30.4963 3.24598 30.4762 3.23801ZM12.0307 19.417C10.2577 19.417 8.79522 17.8135 8.79522 15.847C8.79522 13.879 10.2292 12.277 12.0307 12.277C13.8457 12.277 15.2947 13.8925 15.2662 15.847C15.2662 17.815 13.8322 19.417 12.0307 19.417V19.417ZM23.9932 19.417C22.2187 19.417 20.7577 17.8135 20.7577 15.847C20.7577 13.879 22.1902 12.277 23.9932 12.277C25.8082 12.277 27.2572 13.8925 27.2287 15.847C27.2287 17.815 25.8097 19.417 23.9932 19.417V19.417Z" fill="white"/>
</svg>
