<svg width="31" height="22" viewBox="0 0 31 22" fill="none" xmlns="http://www.w3.org/2000/svg">
<path d="M30.389 3.3045C30.2182 2.6706 29.8843 2.0925 29.4206 1.62775C28.9569 1.16299 28.3795 0.827787 27.746 0.655496C25.397 0.0104958 15.9995 -3.86403e-06 15.9995 -3.86403e-06C15.9995 -3.86403e-06 6.60352 -0.0105042 4.25302 0.605996C3.61991 0.786215 3.04375 1.12616 2.57987 1.5932C2.11598 2.06023 1.77995 2.63868 1.60402 3.273C0.984518 5.622 0.978518 10.494 0.978518 10.494C0.978518 10.494 0.972518 15.39 1.58752 17.715C1.93252 19.0005 2.94502 20.016 4.23202 20.3625C6.60502 21.0075 15.977 21.018 15.977 21.018C15.977 21.018 25.3745 21.0285 27.7235 20.4135C28.3573 20.2415 28.9351 19.9071 29.4 19.4433C29.8649 18.9795 30.2006 18.4023 30.374 17.769C30.995 15.4215 30.9995 10.551 30.9995 10.551C30.9995 10.551 31.0295 5.6535 30.389 3.3045ZM12.9935 15.0075L13.001 6.0075L20.8115 10.515L12.9935 15.0075Z" fill="white"/>
</svg>
