<svg width="20" height="14" viewBox="0 0 20 14" fill="none" xmlns="http://www.w3.org/2000/svg">
<path d="M18.8729 6.5852C18.0444 2.8395 16.7975 0.840279 14.9479 0.294186C14.5591 0.180142 14.1558 0.123167 13.7506 0.125045C13.2151 0.125045 12.7487 0.255514 12.2553 0.393795C11.6608 0.560592 10.9854 0.750045 10.0006 0.750045C9.01584 0.750045 8.34006 0.560982 7.74436 0.394186C7.25061 0.255514 6.78459 0.125045 6.25061 0.125045C5.83163 0.123592 5.41449 0.180386 5.01116 0.293795C3.17131 0.837545 1.92522 2.83598 1.08459 6.58286C0.180687 10.6149 0.625609 13.1606 2.33225 13.7512C2.56619 13.8337 2.81233 13.8762 3.06038 13.877C4.22952 13.877 5.16702 12.9032 5.80764 12.1059C6.53147 11.2036 7.37873 10.7458 10.0006 10.7458C12.3424 10.7458 13.3115 11.0633 14.1487 12.1059C14.6748 12.7614 15.1721 13.22 15.6682 13.5086C16.328 13.8922 16.9873 13.9774 17.6276 13.7575C18.6362 13.4133 19.2143 12.5036 19.3463 11.0528C19.4467 9.94028 19.292 8.47895 18.8729 6.5852ZM8.12561 6.37505H6.87561V7.62505C6.87561 7.79081 6.80976 7.94978 6.69255 8.06699C6.57534 8.1842 6.41637 8.25005 6.25061 8.25005C6.08485 8.25005 5.92588 8.1842 5.80867 8.06699C5.69146 7.94978 5.62561 7.79081 5.62561 7.62505V6.37505H4.37561C4.20985 6.37505 4.05088 6.3092 3.93367 6.19199C3.81646 6.07478 3.75061 5.91581 3.75061 5.75005C3.75061 5.58428 3.81646 5.42531 3.93367 5.3081C4.05088 5.19089 4.20985 5.12505 4.37561 5.12505H5.62561V3.87505C5.62561 3.70929 5.69146 3.55031 5.80867 3.4331C5.92588 3.31589 6.08485 3.25005 6.25061 3.25005C6.41637 3.25005 6.57534 3.31589 6.69255 3.4331C6.80976 3.55031 6.87561 3.70929 6.87561 3.87505V5.12505H8.12561C8.29137 5.12505 8.45034 5.19089 8.56755 5.3081C8.68476 5.42531 8.75061 5.58428 8.75061 5.75005C8.75061 5.91581 8.68476 6.07478 8.56755 6.19199C8.45034 6.3092 8.29137 6.37505 8.12561 6.37505ZM11.4069 6.5313C11.2523 6.5313 11.1013 6.48548 10.9728 6.39963C10.8443 6.31379 10.7442 6.19177 10.6851 6.04902C10.6259 5.90626 10.6105 5.74918 10.6406 5.59763C10.6708 5.44608 10.7452 5.30688 10.8544 5.19762C10.9637 5.08836 11.1029 5.01395 11.2544 4.98381C11.406 4.95366 11.5631 4.96913 11.7058 5.02826C11.8486 5.0874 11.9706 5.18753 12.0564 5.31601C12.1423 5.44448 12.1881 5.59553 12.1881 5.75005C12.1881 5.95725 12.1058 6.15596 11.9593 6.30247C11.8128 6.44899 11.6141 6.5313 11.4069 6.5313ZM13.1256 8.25005C12.971 8.25004 12.8199 8.20418 12.6914 8.11824C12.5629 8.03231 12.4627 7.91018 12.4036 7.76731C12.3446 7.62445 12.3292 7.46726 12.3595 7.31566C12.3898 7.16406 12.4644 7.02486 12.5739 6.91568C12.6833 6.8065 12.8227 6.73224 12.9744 6.70232C13.1261 6.6724 13.2832 6.68815 13.4259 6.74758C13.5687 6.80701 13.6905 6.90745 13.7761 7.03618C13.8618 7.16491 13.9072 7.31615 13.9069 7.47075C13.9063 7.67761 13.8238 7.87582 13.6773 8.02191C13.5309 8.168 13.3325 8.25005 13.1256 8.25005ZM13.1256 4.81255C12.9711 4.81255 12.82 4.76673 12.6916 4.68088C12.5631 4.59504 12.463 4.47302 12.4038 4.33027C12.3447 4.18751 12.3292 4.03043 12.3594 3.87888C12.3895 3.72733 12.4639 3.58813 12.5732 3.47887C12.6824 3.36961 12.8216 3.2952 12.9732 3.26506C13.1247 3.23491 13.2818 3.25038 13.4246 3.30951C13.5673 3.36865 13.6894 3.46878 13.7752 3.59726C13.861 3.72573 13.9069 3.87678 13.9069 4.0313C13.9069 4.2385 13.8246 4.43721 13.678 4.58372C13.5315 4.73024 13.3328 4.81255 13.1256 4.81255ZM14.8444 6.5313C14.6898 6.5313 14.5388 6.48548 14.4103 6.39963C14.2818 6.31379 14.1817 6.19177 14.1226 6.04902C14.0634 5.90626 14.048 5.74918 14.0781 5.59763C14.1083 5.44608 14.1827 5.30688 14.2919 5.19762C14.4012 5.08836 14.5404 5.01395 14.6919 4.98381C14.8435 4.95366 15.0006 4.96913 15.1433 5.02826C15.2861 5.0874 15.4081 5.18753 15.4939 5.31601C15.5798 5.44448 15.6256 5.59553 15.6256 5.75005C15.6256 5.95725 15.5433 6.15596 15.3968 6.30247C15.2503 6.44899 15.0516 6.5313 14.8444 6.5313Z" fill="black"/>
</svg>
