<svg width="23" height="31" viewBox="0 0 23 31" fill="none" xmlns="http://www.w3.org/2000/svg">
<path d="M17.85 9.53674e-06C18.6351 0.00462914 19.4103 0.175016 20.125 0.500011C20.8979 0.84071 21.5565 1.39669 22.0219 2.10155C22.4874 2.80642 22.7402 3.63038 22.75 4.47501V25.525C22.7402 26.3696 22.4874 27.1936 22.0219 27.8985C21.5565 28.6033 20.8979 29.1593 20.125 29.5C19.2356 29.9201 18.2462 30.0819 17.2693 29.967C16.2925 29.852 15.3676 29.465 14.6 28.85L1.85 18.325C1.35001 17.927 0.946234 17.4213 0.668705 16.8456C0.391178 16.2699 0.247047 15.6391 0.247047 15C0.247047 14.3609 0.391178 13.7301 0.668705 13.1544C0.946234 12.5787 1.35001 12.0731 1.85 11.675L14.6 1.15001C15.519 0.404692 16.6667 -0.00140572 17.85 9.53674e-06Z" fill="white"/>
</svg>
