<svg width="23" height="31" viewBox="0 0 23 31" fill="none" xmlns="http://www.w3.org/2000/svg">
<path d="M5.15 31C4.36492 30.9954 3.58967 30.825 2.875 30.5C2.10207 30.1593 1.44353 29.6033 0.978056 28.8984C0.512579 28.1936 0.259833 27.3696 0.25 26.525V5.47499C0.259833 4.63036 0.512579 3.8064 0.978056 3.10154C1.44353 2.39667 2.10207 1.84069 2.875 1.49999C3.76436 1.07991 4.75383 0.91811 5.73067 1.03303C6.70751 1.14795 7.63242 1.53498 8.4 2.14999L21.15 12.675C21.65 13.073 22.0538 13.5787 22.3313 14.1544C22.6088 14.7301 22.753 15.3609 22.753 16C22.753 16.6391 22.6088 17.2699 22.3313 17.8456C22.0538 18.4213 21.65 18.9269 21.15 19.325L8.4 29.85C7.48095 30.5953 6.33328 31.0014 5.15 31Z" fill="white"/>
</svg>
